<svg width="34" height="34" viewBox="0 0 34 34" fill="none" xmlns="http://www.w3.org/2000/svg">
<mask id="mask0_1302_251" style="mask-type:alpha" maskUnits="userSpaceOnUse" x="0" y="0" width="34" height="34">
<rect width="34" height="34" fill="#D9D9D9"/>
</mask>
<g mask="url(#mask0_1302_251)">
<path d="M6.11111 31.5554C5.25556 31.5554 4.52315 31.2508 3.91389 30.6416C3.30463 30.0323 3 29.2999 3 28.4443V6.66656C3 5.811 3.30463 5.0786 3.91389 4.46934C4.52315 3.86008 5.25556 3.55545 6.11111 3.55545H12.6444C12.9815 2.62211 13.5454 1.87026 14.3361 1.29989C15.1269 0.729521 16.0148 0.444336 17 0.444336C17.9852 0.444336 18.8731 0.729521 19.6639 1.29989C20.4546 1.87026 21.0185 2.62211 21.3556 3.55545H27.8889C28.7444 3.55545 29.4769 3.86008 30.0861 4.46934C30.6954 5.0786 31 5.811 31 6.66656V28.4443C31 29.2999 30.6954 30.0323 30.0861 30.6416C29.4769 31.2508 28.7444 31.5554 27.8889 31.5554H6.11111ZM6.11111 28.4443H27.8889V6.66656H6.11111V28.4443ZM10.7778 25.3332H18.5556C18.9963 25.3332 19.3657 25.1842 19.6639 24.886C19.962 24.5879 20.1111 24.2184 20.1111 23.7777C20.1111 23.3369 19.962 22.9675 19.6639 22.6693C19.3657 22.3712 18.9963 22.2221 18.5556 22.2221H10.7778C10.337 22.2221 9.96759 22.3712 9.66944 22.6693C9.3713 22.9675 9.22222 23.3369 9.22222 23.7777C9.22222 24.2184 9.3713 24.5879 9.66944 24.886C9.96759 25.1842 10.337 25.3332 10.7778 25.3332ZM10.7778 19.111H23.2222C23.663 19.111 24.0324 18.9619 24.3306 18.6638C24.6287 18.3656 24.7778 17.9962 24.7778 17.5554C24.7778 17.1147 24.6287 16.7453 24.3306 16.4471C24.0324 16.149 23.663 15.9999 23.2222 15.9999H10.7778C10.337 15.9999 9.96759 16.149 9.66944 16.4471C9.3713 16.7453 9.22222 17.1147 9.22222 17.5554C9.22222 17.9962 9.3713 18.3656 9.66944 18.6638C9.96759 18.9619 10.337 19.111 10.7778 19.111ZM10.7778 12.8888H23.2222C23.663 12.8888 24.0324 12.7397 24.3306 12.4416C24.6287 12.1434 24.7778 11.774 24.7778 11.3332C24.7778 10.8925 24.6287 10.523 24.3306 10.2249C24.0324 9.92674 23.663 9.77767 23.2222 9.77767H10.7778C10.337 9.77767 9.96759 9.92674 9.66944 10.2249C9.3713 10.523 9.22222 10.8925 9.22222 11.3332C9.22222 11.774 9.3713 12.1434 9.66944 12.4416C9.96759 12.7397 10.337 12.8888 10.7778 12.8888ZM17 5.49989C17.337 5.49989 17.6157 5.38971 17.8361 5.16934C18.0565 4.94897 18.1667 4.67026 18.1667 4.33322C18.1667 3.99619 18.0565 3.71748 17.8361 3.49711C17.6157 3.27674 17.337 3.16656 17 3.16656C16.663 3.16656 16.3843 3.27674 16.1639 3.49711C15.9435 3.71748 15.8333 3.99619 15.8333 4.33322C15.8333 4.67026 15.9435 4.94897 16.1639 5.16934C16.3843 5.38971 16.663 5.49989 17 5.49989Z" fill="#141414" fill-opacity="0.8"/>
</g>
</svg>
