<svg width="28" height="28" viewBox="0 0 40 40" fill="none" xmlns="http://www.w3.org/2000/svg">
<g transform="translate(6,6) scale(1)">
<path d="M28 28L22.4 22.4H8.4C7.63 22.4 6.97083 22.1258 6.4225 21.5775C5.87417 21.0292 5.6 20.37 5.6 19.6V18.2H21C21.77 18.2 22.4292 17.9258 22.9775 17.3775C23.5258 16.8292 23.8 16.17 23.8 15.4V5.6H25.2C25.97 5.6 26.6292 5.87417 27.1775 6.4225C27.7258 6.97083 28 7.63 28 8.4V28ZM2.8 14.245L4.445 12.6H18.2V2.8H2.8V14.245ZM0 21V2.8C0 2.03 0.274167 1.37083 0.8225 0.8225C1.37083 0.274167 2.03 0 2.8 0H18.2C18.97 0 19.6292 0.274167 20.1775 0.8225C20.7258 1.37083 21 2.03 21 2.8V12.6C21 13.37 20.7258 14.0292 20.1775 14.5775C19.6292 15.1258 18.97 15.4 18.2 15.4H5.6L0 21Z" fill="#1C1B1F"/>
</g>
</svg>
