<svg width="40" height="40" viewBox="0 0 40 40" fill="none" xmlns="http://www.w3.org/2000/svg">
<mask id="mask0_1594_7659" style="mask-type:alpha" maskUnits="userSpaceOnUse" x="0" y="0" width="40" height="40">
<rect width="40" height="40" fill="#D9D9D9"/>
</mask>
<g mask="url(#mask0_1594_7659)">
<path d="M18.9 25.5565V13.2365L15.2843 16.8522L13.7384 15.2616L20 9L26.2616 15.2616L24.7157 16.8522L21.1 13.2365V25.5565H18.9ZM11.6514 31C10.9105 31 10.2833 30.7433 9.77 30.23C9.25667 29.7167 9 29.0895 9 28.3486V24.3718H11.2V28.3486C11.2 28.4616 11.2471 28.565 11.3412 28.6588C11.435 28.7529 11.5384 28.8 11.6514 28.8H28.3486C28.4616 28.8 28.565 28.7529 28.6588 28.6588C28.7529 28.565 28.8 28.4616 28.8 28.3486V24.3718H31V28.3486C31 29.0895 30.7433 29.7167 30.23 30.23C29.7167 30.7433 29.0895 31 28.3486 31H11.6514Z" fill="white"/>
</g>
</svg>
