<svg width="40" height="40" viewBox="0 0 40 40" fill="none" xmlns="http://www.w3.org/2000/svg">
<mask id="mask0_1594_7588" style="mask-type:alpha" maskUnits="userSpaceOnUse" x="0" y="0" width="40" height="40">
<rect width="40" height="40" fill="#D9D9D9"/>
</mask>
<g mask="url(#mask0_1594_7588)">
<path d="M13.3333 40C12.8611 40 12.4653 39.8403 12.1458 39.5208C11.8264 39.2014 11.6666 38.8055 11.6666 38.3333C11.6666 37.8611 11.8264 37.4653 12.1458 37.1458C12.4653 36.8264 12.8611 36.6666 13.3333 36.6666C13.8055 36.6666 14.2014 36.8264 14.5208 37.1458C14.8403 37.4653 15 37.8611 15 38.3333C15 38.8055 14.8403 39.2014 14.5208 39.5208C14.2014 39.8403 13.8055 40 13.3333 40ZM20 40C19.5278 40 19.1319 39.8403 18.8125 39.5208C18.493 39.2014 18.3333 38.8055 18.3333 38.3333C18.3333 37.8611 18.493 37.4653 18.8125 37.1458C19.1319 36.8264 19.5278 36.6666 20 36.6666C20.4722 36.6666 20.868 36.8264 21.1875 37.1458C21.5069 37.4653 21.6666 37.8611 21.6666 38.3333C21.6666 38.8055 21.5069 39.2014 21.1875 39.5208C20.868 39.8403 20.4722 40 20 40ZM26.6666 40C26.1944 40 25.7986 39.8403 25.4791 39.5208C25.1597 39.2014 25 38.8055 25 38.3333C25 37.8611 25.1597 37.4653 25.4791 37.1458C25.7986 36.8264 26.1944 36.6666 26.6666 36.6666C27.1389 36.6666 27.5347 36.8264 27.8541 37.1458C28.1736 37.4653 28.3333 37.8611 28.3333 38.3333C28.3333 38.8055 28.1736 39.2014 27.8541 39.5208C27.5347 39.8403 27.1389 40 26.6666 40ZM20 23.3333C18.6111 23.3333 17.4305 22.8472 16.4583 21.875C15.4861 20.9028 15 19.7222 15 18.3333V8.33331C15 6.94442 15.4861 5.76387 16.4583 4.79165C17.4305 3.81942 18.6111 3.33331 20 3.33331C21.3889 3.33331 22.5694 3.81942 23.5416 4.79165C24.5139 5.76387 25 6.94442 25 8.33331V18.3333C25 19.7222 24.5139 20.9028 23.5416 21.875C22.5694 22.8472 21.3889 23.3333 20 23.3333ZM18.3333 35V29.8333C15.4444 29.4444 13.0555 28.1597 11.1666 25.9791C9.27776 23.7986 8.33331 21.25 8.33331 18.3333H11.6666C11.6666 20.6389 12.4791 22.6041 14.1041 24.2291C15.7291 25.8541 17.6944 26.6666 20 26.6666C22.3055 26.6666 24.2708 25.8541 25.8958 24.2291C27.5208 22.6041 28.3333 20.6389 28.3333 18.3333H31.6666C31.6666 21.25 30.7222 23.7986 28.8333 25.9791C26.9444 28.1597 24.5555 29.4444 21.6666 29.8333V35H18.3333ZM20 20C20.4722 20 20.868 19.8403 21.1875 19.5208C21.5069 19.2014 21.6666 18.8055 21.6666 18.3333V8.33331C21.6666 7.86109 21.5069 7.46526 21.1875 7.14581C20.868 6.82637 20.4722 6.66665 20 6.66665C19.5278 6.66665 19.1319 6.82637 18.8125 7.14581C18.493 7.46526 18.3333 7.86109 18.3333 8.33331V18.3333C18.3333 18.8055 18.493 19.2014 18.8125 19.5208C19.1319 19.8403 19.5278 20 20 20Z" fill="#141414"/>
</g>
</svg>
