<svg width="40" height="40" viewBox="0 0 40 40" fill="none" xmlns="http://www.w3.org/2000/svg">
<mask id="mask0_1743_7788" style="mask-type:alpha" maskUnits="userSpaceOnUse" x="0" y="0" width="40" height="40">
<rect width="40" height="40" fill="#D9D9D9"/>
</mask>
<g mask="url(#mask0_1743_7788)">
<path d="M25.432 15.9255V13.2094H22.716V10.4934H25.432V7.77734H28.1481V10.4934H30.8641V13.2094H28.1481V15.9255H25.432ZM9.13574 32.2218V7.77734H21.358C20.9053 8.45636 20.5658 9.10708 20.3394 9.7295C20.1131 10.3519 19.9999 11.0592 19.9999 11.8514C19.9999 13.481 20.5149 14.9183 21.5447 16.1631C22.5745 17.408 23.8703 18.1889 25.432 18.5057C25.9526 18.5736 26.4053 18.6076 26.7901 18.6076C27.1748 18.6076 27.6275 18.5736 28.1481 18.5057V32.2218L18.6419 28.1477L9.13574 32.2218Z" fill="white"/>
</g>
</svg>
