<svg width="40" height="40" viewBox="0 0 40 40" fill="none" xmlns="http://www.w3.org/2000/svg">
<mask id="mask0_1302_250" style="mask-type:alpha" maskUnits="userSpaceOnUse" x="3" y="3" width="34" height="34">
<rect x="3" y="3" width="34" height="34" fill="#D9D9D9"/>
</mask>
<g mask="url(#mask0_1302_250)">
<path d="M9.11111 34.5554C8.25556 34.5554 7.52315 34.2508 6.91389 33.6416C6.30463 33.0323 6 32.2999 6 31.4443V9.66656C6 8.811 6.30463 8.0786 6.91389 7.46934C7.52315 6.86008 8.25556 6.55545 9.11111 6.55545H15.6444C15.9815 5.62211 16.5454 4.87026 17.3361 4.29989C18.1269 3.72952 19.0148 3.44434 20 3.44434C20.9852 3.44434 21.8731 3.72952 22.6639 4.29989C23.4546 4.87026 24.0185 5.62211 24.3556 6.55545H30.8889C31.7444 6.55545 32.4769 6.86008 33.0861 7.46934C33.6954 8.0786 34 8.811 34 9.66656V31.4443C34 32.2999 33.6954 33.0323 33.0861 33.6416C32.4769 34.2508 31.7444 34.5554 30.8889 34.5554H9.11111ZM9.11111 31.4443H30.8889V9.66656H9.11111V31.4443ZM13.7778 28.3332H21.5556C21.9963 28.3332 22.3657 28.1842 22.6639 27.886C22.962 27.5879 23.1111 27.2184 23.1111 26.7777C23.1111 26.3369 22.962 25.9675 22.6639 25.6693C22.3657 25.3712 21.9963 25.2221 21.5556 25.2221H13.7778C13.337 25.2221 12.9676 25.3712 12.6694 25.6693C12.3713 25.9675 12.2222 26.3369 12.2222 26.7777C12.2222 27.2184 12.3713 27.5879 12.6694 27.886C12.9676 28.1842 13.337 28.3332 13.7778 28.3332ZM13.7778 22.111H26.2222C26.663 22.111 27.0324 21.9619 27.3306 21.6638C27.6287 21.3656 27.7778 20.9962 27.7778 20.5554C27.7778 20.1147 27.6287 19.7453 27.3306 19.4471C27.0324 19.149 26.663 18.9999 26.2222 18.9999H13.7778C13.337 18.9999 12.9676 19.149 12.6694 19.4471C12.3713 19.7453 12.2222 20.1147 12.2222 20.5554C12.2222 20.9962 12.3713 21.3656 12.6694 21.6638C12.9676 21.9619 13.337 22.111 13.7778 22.111ZM13.7778 15.8888H26.2222C26.663 15.8888 27.0324 15.7397 27.3306 15.4416C27.6287 15.1434 27.7778 14.774 27.7778 14.3332C27.7778 13.8925 27.6287 13.523 27.3306 13.2249C27.0324 12.9267 26.663 12.7777 26.2222 12.7777H13.7778C13.337 12.7777 12.9676 12.9267 12.6694 13.2249C12.3713 13.523 12.2222 13.8925 12.2222 14.3332C12.2222 14.774 12.3713 15.1434 12.6694 15.4416C12.9676 15.7397 13.337 15.8888 13.7778 15.8888ZM20 8.49989C20.337 8.49989 20.6157 8.38971 20.8361 8.16934C21.0565 7.94897 21.1667 7.67026 21.1667 7.33322C21.1667 6.99619 21.0565 6.71748 20.8361 6.49711C20.6157 6.27674 20.337 6.16656 20 6.16656C19.663 6.16656 19.3843 6.27674 19.1639 6.49711C18.9435 6.71748 18.8333 6.99619 18.8333 7.33322C18.8333 7.67026 18.9435 7.94897 19.1639 8.16934C19.3843 8.38971 19.663 8.49989 20 8.49989Z" fill="#141414" fill-opacity="0.8"/>
</g>
</svg>
