<svg width="20" height="18" viewBox="0 0 20 18" fill="none" xmlns="http://www.w3.org/2000/svg">
<path d="M7 18H2C1.45 18 0.979167 17.8042 0.5875 17.4125C0.195833 17.0208 0 16.55 0 16V4C0 3.45 0.195833 2.97917 0.5875 2.5875C0.979167 2.19583 1.45 2 2 2H5.15L7 0H13L14.85 2H18C18.55 2 19.0208 2.19583 19.4125 2.5875C19.8042 2.97917 20 3.45 20 4V16C20 16.55 19.8042 17.0208 19.4125 17.4125C19.0208 17.8042 18.55 18 18 18H13V16H18V4H13.95L12.125 2H7.875L6.05 4H2V16H7V18ZM9 18H11V14.9C12.4333 14.6667 13.625 13.9958 14.575 12.8875C15.525 11.7792 16 10.4833 16 9H14C14 10.1 13.6083 11.0417 12.825 11.825C12.0417 12.6083 11.1 13 10 13C8.9 13 7.95833 12.6083 7.175 11.825C6.39167 11.0417 6 10.1 6 9H4C4 10.4833 4.475 11.7792 5.425 12.8875C6.375 13.9958 7.56667 14.6667 9 14.9V18ZM10 11C10.55 11 11.0208 10.8042 11.4125 10.4125C11.8042 10.0208 12 9.55 12 9V5C12 4.45 11.8042 3.97917 11.4125 3.5875C11.0208 3.19583 10.55 3 10 3C9.45 3 8.97917 3.19583 8.5875 3.5875C8.19583 3.97917 8 4.45 8 5V9C8 9.55 8.19583 10.0208 8.5875 10.4125C8.97917 10.8042 9.45 11 10 11Z" fill="#1C1B1F"/>
</svg>
