<svg width="19" height="20" viewBox="0 0 19 20" fill="none" xmlns="http://www.w3.org/2000/svg">
<path d="M7 12C6.16667 12 5.45833 11.7083 4.875 11.125C4.29167 10.5417 4 9.83333 4 9V3C4 2.16667 4.29167 1.45833 4.875 0.875C5.45833 0.291667 6.16667 0 7 0C7.83333 0 8.54167 0.291667 9.125 0.875C9.70833 1.45833 10 2.16667 10 3V9C10 9.83333 9.70833 10.5417 9.125 11.125C8.54167 11.7083 7.83333 12 7 12ZM7 10C7.28333 10 7.52083 9.90417 7.7125 9.7125C7.90417 9.52083 8 9.28333 8 9V3C8 2.71667 7.90417 2.47917 7.7125 2.2875C7.52083 2.09583 7.28333 2 7 2C6.71667 2 6.47917 2.09583 6.2875 2.2875C6.09583 2.47917 6 2.71667 6 3V9C6 9.28333 6.09583 9.52083 6.2875 9.7125C6.47917 9.90417 6.71667 10 7 10ZM8 19H6V15.925C4.26667 15.6917 2.83333 14.9167 1.7 13.6C0.566667 12.2833 0 10.75 0 9H2C2 10.3833 2.4875 11.5625 3.4625 12.5375C4.4375 13.5125 5.61667 14 7 14C7.18333 14 7.35417 13.9917 7.5125 13.975C7.67083 13.9583 7.83333 13.9333 8 13.9V19ZM14 18C14.1333 18 14.25 17.95 14.35 17.85C14.45 17.75 14.5 17.6333 14.5 17.5C14.5 17.3667 14.45 17.25 14.35 17.15C14.25 17.05 14.1333 17 14 17C13.8667 17 13.75 17.05 13.65 17.15C13.55 17.25 13.5 17.3667 13.5 17.5C13.5 17.6333 13.55 17.75 13.65 17.85C13.75 17.95 13.8667 18 14 18ZM13.5 16H14.5V12H13.5V16ZM14 20C12.6167 20 11.4375 19.5125 10.4625 18.5375C9.4875 17.5625 9 16.3833 9 15C9 13.6167 9.4875 12.4375 10.4625 11.4625C11.4375 10.4875 12.6167 10 14 10C15.3833 10 16.5625 10.4875 17.5375 11.4625C18.5125 12.4375 19 13.6167 19 15C19 16.3833 18.5125 17.5625 17.5375 18.5375C16.5625 19.5125 15.3833 20 14 20Z" fill="#1C1B1F"/>
</svg>
