<svg width="28" height="28" viewBox="0 0 28 28" fill="none" xmlns="http://www.w3.org/2000/svg">
<mask id="mask0_1483_15631" style="mask-type:alpha" maskUnits="userSpaceOnUse" x="0" y="0" width="28" height="28">
<rect width="28" height="28" fill="#D9D9D9"/>
</mask>
<g mask="url(#mask0_1483_15631)">
<path d="M12.016 21.032C9.49613 21.032 7.36351 20.1593 5.6181 18.4139C3.8727 16.6685 3 14.5358 3 12.016C3 9.49613 3.8727 7.36351 5.6181 5.6181C7.36351 3.8727 9.49613 3 12.016 3C14.5358 3 16.6685 3.8727 18.4139 5.6181C20.1593 7.36351 21.032 9.49613 21.032 12.016C21.032 13.0332 20.8701 13.9926 20.5465 14.8942C20.2228 15.7958 19.7836 16.5933 19.2288 17.2869L24.6186 22.6766C24.8729 22.9309 25 23.2546 25 23.6476C25 24.0406 24.8729 24.3643 24.6186 24.6186C24.3643 24.8729 24.0406 25 23.6476 25C23.2546 25 22.9309 24.8729 22.6766 24.6186L17.2869 19.2288C16.5933 19.7836 15.7958 20.2228 14.8942 20.5465C13.9926 20.8701 13.0332 21.032 12.016 21.032ZM12.016 18.2578C13.7498 18.2578 15.2236 17.651 16.4373 16.4373C17.651 15.2236 18.2578 13.7498 18.2578 12.016C18.2578 10.2821 17.651 8.80838 16.4373 7.59469C15.2236 6.381 13.7498 5.77415 12.016 5.77415C10.2821 5.77415 8.80838 6.381 7.59469 7.59469C6.381 8.80838 5.77415 10.2821 5.77415 12.016C5.77415 13.7498 6.381 15.2236 7.59469 16.4373C8.80838 17.651 10.2821 18.2578 12.016 18.2578Z" fill="white"/>
</g>
</svg>
