<svg width="40" height="40" viewBox="0 0 40 40" fill="none" xmlns="http://www.w3.org/2000/svg">
<mask id="mask0_1302_260" style="mask-type:alpha" maskUnits="userSpaceOnUse" x="0" y="0" width="40" height="40">
<rect width="40" height="40" fill="#D9D9D9"/>
</mask>
<g mask="url(#mask0_1302_260)">
<path d="M13.3333 40.0002C12.861 40.0002 12.4652 39.8404 12.1458 39.521C11.8263 39.2016 11.6666 38.8057 11.6666 38.3335C11.6666 37.8613 11.8263 37.4654 12.1458 37.146C12.4652 36.8266 12.861 36.6668 13.3333 36.6668C13.8055 36.6668 14.2013 36.8266 14.5208 37.146C14.8402 37.4654 14.9999 37.8613 14.9999 38.3335C14.9999 38.8057 14.8402 39.2016 14.5208 39.521C14.2013 39.8404 13.8055 40.0002 13.3333 40.0002ZM19.9999 40.0002C19.5277 40.0002 19.1319 39.8404 18.8124 39.521C18.493 39.2016 18.3333 38.8057 18.3333 38.3335C18.3333 37.8613 18.493 37.4654 18.8124 37.146C19.1319 36.8266 19.5277 36.6668 19.9999 36.6668C20.4721 36.6668 20.868 36.8266 21.1874 37.146C21.5069 37.4654 21.6666 37.8613 21.6666 38.3335C21.6666 38.8057 21.5069 39.2016 21.1874 39.521C20.868 39.8404 20.4721 40.0002 19.9999 40.0002ZM26.6666 40.0002C26.1944 40.0002 25.7985 39.8404 25.4791 39.521C25.1596 39.2016 24.9999 38.8057 24.9999 38.3335C24.9999 37.8613 25.1596 37.4654 25.4791 37.146C25.7985 36.8266 26.1944 36.6668 26.6666 36.6668C27.1388 36.6668 27.5346 36.8266 27.8541 37.146C28.1735 37.4654 28.3333 37.8613 28.3333 38.3335C28.3333 38.8057 28.1735 39.2016 27.8541 39.521C27.5346 39.8404 27.1388 40.0002 26.6666 40.0002ZM19.9999 23.3335C18.611 23.3335 17.4305 22.8474 16.4583 21.8752C15.486 20.9029 14.9999 19.7224 14.9999 18.3335V8.3335C14.9999 6.94461 15.486 5.76405 16.4583 4.79183C17.4305 3.81961 18.611 3.3335 19.9999 3.3335C21.3888 3.3335 22.5694 3.81961 23.5416 4.79183C24.5138 5.76405 24.9999 6.94461 24.9999 8.3335V18.3335C24.9999 19.7224 24.5138 20.9029 23.5416 21.8752C22.5694 22.8474 21.3888 23.3335 19.9999 23.3335ZM18.3333 35.0002V29.8335C15.4444 29.4446 13.0555 28.1599 11.1666 25.9793C9.2777 23.7988 8.33325 21.2502 8.33325 18.3335H11.6666C11.6666 20.6391 12.4791 22.6043 14.1041 24.2293C15.7291 25.8543 17.6944 26.6668 19.9999 26.6668C22.3055 26.6668 24.2708 25.8543 25.8958 24.2293C27.5208 22.6043 28.3333 20.6391 28.3333 18.3335H31.6666C31.6666 21.2502 30.7221 23.7988 28.8333 25.9793C26.9444 28.1599 24.5555 29.4446 21.6666 29.8335V35.0002H18.3333ZM19.9999 20.0002C20.4721 20.0002 20.868 19.8404 21.1874 19.521C21.5069 19.2016 21.6666 18.8057 21.6666 18.3335V8.3335C21.6666 7.86127 21.5069 7.46544 21.1874 7.146C20.868 6.82655 20.4721 6.66683 19.9999 6.66683C19.5277 6.66683 19.1319 6.82655 18.8124 7.146C18.493 7.46544 18.3333 7.86127 18.3333 8.3335V18.3335C18.3333 18.8057 18.493 19.2016 18.8124 19.521C19.1319 19.8404 19.5277 20.0002 19.9999 20.0002Z" fill="#141414"/>
</g>
</svg>
