<svg width="96" height="30" viewBox="0 0 96 30" fill="none" xmlns="http://www.w3.org/2000/svg">
<path d="M79.4444 24.8638H64.0656V16.6232H79.4444V24.8638ZM70.0665 8.90465V8.24631H62.5825V5.52213H73.2153V9.38139C73.2153 11.3337 72.759 11.9921 71.0933 12.6958C68.4693 13.8082 65.5487 14.9205 62.6965 15.9648L61.6013 13.5585C64.385 12.4688 66.758 11.4699 69.0854 10.4484C69.7699 10.1532 70.0665 9.69921 70.0665 8.90465ZM79.4444 15.8513H76.2957V5H79.4444V8.81385H82V11.6969H79.4444V15.8513ZM76.2957 22.1396V19.3473H67.2144V22.1396H76.2957Z" fill="#141414"/>
<path d="M61.124 23.7049H41.2729V20.9353H49.8294V16.849H43.1212V5.61182H59.2758V8.3814H46.2699V14.0795H59.504V16.849H53.0239V20.9353H61.124V23.7049Z" fill="#141414"/>
<path d="M35.1597 25H27.4474C24.8235 25 22.9068 23.3882 22.9068 20.7094C22.9068 18.0306 24.8235 16.4188 27.4474 16.4188H35.1597C37.7837 16.4188 39.7003 18.0306 39.7003 20.7094C39.7003 23.3882 37.7837 25 35.1597 25ZM34.247 13.7401L32.4444 15.8059C30.8244 14.6254 29.3185 13.4904 27.7669 12.3553C26.124 13.6266 24.4128 14.8978 22.7015 16.1691L20.8076 14.1033C22.3592 12.9228 23.9564 11.6969 25.4623 10.4711C25.9187 10.0851 26.1697 9.563 26.1697 8.81385V8.20091H21.6975V5.52213H33.6994V8.20091H29.3641V8.81385C29.3641 9.563 29.6151 10.0851 30.0714 10.4711C31.372 11.5834 32.8552 12.7185 34.247 13.7401ZM39.1755 15.874H36.0268V11.5607H32.4216V8.92735H36.0268V5H39.1755V15.874ZM34.8174 19.143H27.7897C26.6945 19.143 26.0556 19.7106 26.0556 20.7094C26.0556 21.7083 26.6945 22.2758 27.7897 22.2758H34.8174C35.9127 22.2758 36.5516 21.7083 36.5516 20.7094C36.5516 19.7106 35.9127 19.143 34.8174 19.143Z" fill="#141414"/>
<path d="M17.8431 24.8638H2.46427V16.6232H17.8431V24.8638ZM8.46522 8.90465V8.24631H0.981144V5.52213H11.614V9.38139C11.614 11.3337 11.1577 11.9921 9.492 12.6958C6.86801 13.8082 3.94739 14.9205 1.09523 15.9648L0 13.5585C2.78371 12.4688 5.15671 11.4699 7.48407 10.4484C8.16859 10.1532 8.46522 9.69921 8.46522 8.90465ZM17.8431 15.8513H14.6943V5H17.8431V8.81385H20.3987V11.6969H17.8431V15.8513ZM14.6943 22.1396V19.3473H5.61306V22.1396H14.6943Z" fill="#141414"/>
<path d="M86 18L88.5212 6.43284C88.6638 5.80597 88.8676 5.23383 89.1324 4.71642C89.3973 4.199 89.7742 3.78607 90.2632 3.47761C90.7623 3.1592 91.4194 3 92.2343 3C92.8149 3 93.309 3.0995 93.7165 3.29851C94.1341 3.49751 94.4499 3.78607 94.6638 4.16418C94.8879 4.54229 95 4.99502 95 5.52239C95 6.04975 94.8981 6.51741 94.6944 6.92537C94.5008 7.32338 94.2105 7.65672 93.8234 7.92537C93.4363 8.18408 92.9525 8.37811 92.3718 8.50746C92.9015 8.61691 93.3497 8.87065 93.7165 9.26866C94.0934 9.65672 94.2818 10.2239 94.2818 10.9701C94.2818 11.4776 94.2003 11.9502 94.0374 12.3881C93.8744 12.8259 93.635 13.209 93.3192 13.5373C93.0136 13.8657 92.6316 14.1194 92.1732 14.2985C91.725 14.4776 91.2054 14.5672 90.6146 14.5672C90.0238 14.5672 89.5501 14.4826 89.1935 14.3134C88.837 14.1343 88.5314 13.9502 88.2767 13.7612L87.3294 18H86ZM90.5076 13.4925C90.9253 13.4925 91.2869 13.4229 91.5925 13.2836C91.8981 13.1443 92.1528 12.9602 92.3565 12.7313C92.5603 12.5025 92.7131 12.2388 92.8149 11.9403C92.9168 11.6418 92.9677 11.3383 92.9677 11.0299C92.9677 10.6318 92.8964 10.2786 92.7538 9.97015C92.6112 9.66169 92.382 9.41791 92.0662 9.23881C91.7504 9.0597 91.3277 8.97015 90.798 8.97015H90.309L90.5229 7.97015H91.0883C91.5365 7.97015 91.9185 7.91045 92.2343 7.79104C92.5603 7.67164 92.8251 7.50746 93.0289 7.29851C93.2326 7.0796 93.3803 6.82587 93.472 6.53731C93.5739 6.24876 93.6248 5.9403 93.6248 5.61194C93.6248 5.17413 93.4975 4.81095 93.2428 4.52239C92.9983 4.22388 92.6163 4.07463 92.0968 4.07463C91.618 4.07463 91.2309 4.18905 90.9355 4.41791C90.6401 4.63682 90.4109 4.93035 90.2479 5.29851C90.0849 5.65672 89.9576 6.04975 89.8659 6.47761L88.4754 12.8657C88.7199 13.0547 89.0255 13.209 89.3922 13.3284C89.7589 13.4378 90.1307 13.4925 90.5076 13.4925Z" fill="#141414"/>
</svg>
