<svg width="28" height="28" viewBox="0 0 28 28" fill="none" xmlns="http://www.w3.org/2000/svg">
<mask id="mask0_1302_108" style="mask-type:alpha" maskUnits="userSpaceOnUse" x="0" y="0" width="28" height="28">
<rect width="28" height="28" fill="#D9D9D9"/>
</mask>
<g mask="url(#mask0_1302_108)">
<path d="M16.1583 24.4998C15.1083 24.4998 14.2236 24.1401 13.5042 23.4207C12.7847 22.7012 12.425 21.836 12.425 20.8248C12.425 19.3471 13.0229 18.0103 14.2188 16.8144C15.4146 15.6186 16.9069 14.8748 18.6958 14.5832C18.6375 13.8832 18.4625 13.3533 18.1708 12.9936C17.8792 12.6339 17.4806 12.454 16.975 12.454C16.3917 12.454 15.7597 12.6971 15.0792 13.1832C14.3986 13.6693 13.5917 14.4665 12.6583 15.5748C11.1417 17.3832 10.0285 18.5596 9.31875 19.104C8.60903 19.6484 7.84583 19.9207 7.02917 19.9207C6.0375 19.9207 5.20139 19.5512 4.52083 18.8123C3.84028 18.0735 3.5 17.179 3.5 16.129C3.5 15.079 3.72847 14.0047 4.18542 12.9061C4.64236 11.8075 5.41528 10.4901 6.50417 8.954C6.87361 8.44845 7.14583 8.02067 7.32083 7.67067C7.49583 7.32067 7.58333 7.03873 7.58333 6.82484C7.58333 6.68873 7.55903 6.58664 7.51042 6.51859C7.46181 6.45053 7.38889 6.4165 7.29167 6.4165C7.09722 6.4165 6.85417 6.53803 6.5625 6.78109C6.27083 7.02414 5.93056 7.39845 5.54167 7.904L3.5 5.83317C4.12222 5.07484 4.75417 4.49637 5.39583 4.09775C6.0375 3.69914 6.66944 3.49984 7.29167 3.49984C8.18611 3.49984 8.94445 3.81095 9.56667 4.43317C10.1889 5.05539 10.5 5.83317 10.5 6.7665C10.5 7.33039 10.3542 7.95262 10.0625 8.63317C9.77083 9.31373 9.28472 10.1304 8.60417 11.0832C7.86528 12.1332 7.31597 13.0568 6.95625 13.854C6.59653 14.6512 6.41667 15.3512 6.41667 15.954C6.41667 16.2846 6.47014 16.5422 6.57708 16.7269C6.68403 16.9116 6.83472 17.004 7.02917 17.004C7.22361 17.004 7.39375 16.9505 7.53958 16.8436C7.68542 16.7366 7.95278 16.479 8.34167 16.0707C8.59444 15.7985 8.89583 15.463 9.24583 15.0644C9.59583 14.6658 10.0236 14.1748 10.5292 13.5915C11.7542 12.1332 12.8625 11.0929 13.8542 10.4707C14.8458 9.84845 15.8861 9.53734 16.975 9.53734C18.2778 9.53734 19.3472 9.97484 20.1833 10.8498C21.0194 11.7248 21.4958 12.9207 21.6125 14.4373H24.5V17.354H21.6125C21.4569 19.5318 20.8882 21.2672 19.9063 22.5603C18.9243 23.8533 17.675 24.4998 16.1583 24.4998ZM16.2167 21.5832C16.8389 21.5832 17.3639 21.2283 17.7917 20.5186C18.2194 19.8089 18.5111 18.8221 18.6667 17.5582C17.7722 17.7721 16.9944 18.195 16.3333 18.8269C15.6722 19.4589 15.3417 20.0859 15.3417 20.7082C15.3417 20.9804 15.4194 21.1943 15.575 21.3498C15.7306 21.5054 15.9444 21.5832 16.2167 21.5832ZM23.3333 8.1665C22.3611 8.1665 21.5347 7.82623 20.8542 7.14567C20.1736 6.46512 19.8333 5.63873 19.8333 4.6665C19.8333 3.69428 20.1736 2.86789 20.8542 2.18734C21.5347 1.50678 22.3611 1.1665 23.3333 1.1665C24.3056 1.1665 25.1319 1.50678 25.8125 2.18734C26.4931 2.86789 26.8333 3.69428 26.8333 4.6665C26.8333 5.63873 26.4931 6.46512 25.8125 7.14567C25.1319 7.82623 24.3056 8.1665 23.3333 8.1665Z" fill="#141414"/>
</g>
</svg>
